<?xml version="1.0" standalone="no"?>
<svg xmlns:xlink="http://www.w3.org/1999/xlink" id="wave" style="transform:rotate(0deg); transition: 0.3s" viewBox="0 0 1440 490" version="1.1" xmlns="http://www.w3.org/2000/svg"><defs><linearGradient id="sw-gradient-0" x1="0" x2="0" y1="1" y2="0"><stop stop-color="rgba(243, 106, 62, 1)" offset="0%"/><stop stop-color="rgba(255, 179, 11, 1)" offset="100%"/></linearGradient></defs><path style="transform:translate(0, 0px); opacity:1" fill="url(#sw-gradient-0)" d="M0,441L48,416.5C96,392,192,343,288,326.7C384,310,480,327,576,334.8C672,343,768,343,864,318.5C960,294,1056,245,1152,253.2C1248,261,1344,327,1440,343C1536,359,1632,327,1728,326.7C1824,327,1920,359,2016,367.5C2112,376,2208,359,2304,294C2400,229,2496,114,2592,122.5C2688,131,2784,261,2880,277.7C2976,294,3072,196,3168,171.5C3264,147,3360,196,3456,212.3C3552,229,3648,212,3744,171.5C3840,131,3936,65,4032,73.5C4128,82,4224,163,4320,163.3C4416,163,4512,82,4608,98C4704,114,4800,229,4896,277.7C4992,327,5088,310,5184,294C5280,278,5376,261,5472,228.7C5568,196,5664,147,5760,179.7C5856,212,5952,327,6048,310.3C6144,294,6240,147,6336,114.3C6432,82,6528,163,6624,212.3C6720,261,6816,278,6864,285.8L6912,294L6912,490L6864,490C6816,490,6720,490,6624,490C6528,490,6432,490,6336,490C6240,490,6144,490,6048,490C5952,490,5856,490,5760,490C5664,490,5568,490,5472,490C5376,490,5280,490,5184,490C5088,490,4992,490,4896,490C4800,490,4704,490,4608,490C4512,490,4416,490,4320,490C4224,490,4128,490,4032,490C3936,490,3840,490,3744,490C3648,490,3552,490,3456,490C3360,490,3264,490,3168,490C3072,490,2976,490,2880,490C2784,490,2688,490,2592,490C2496,490,2400,490,2304,490C2208,490,2112,490,2016,490C1920,490,1824,490,1728,490C1632,490,1536,490,1440,490C1344,490,1248,490,1152,490C1056,490,960,490,864,490C768,490,672,490,576,490C480,490,384,490,288,490C192,490,96,490,48,490L0,490Z"/></svg>