<?xml version="1.0" encoding="UTF-8" standalone="no"?>
<svg
   xmlns:dc="http://purl.org/dc/elements/1.1/"
   xmlns:cc="http://creativecommons.org/ns#"
   xmlns:rdf="http://www.w3.org/1999/02/22-rdf-syntax-ns#"
   xmlns:svg="http://www.w3.org/2000/svg"
   xmlns="http://www.w3.org/2000/svg"
   xmlns:sodipodi="http://sodipodi.sourceforge.net/DTD/sodipodi-0.dtd"
   xmlns:inkscape="http://www.inkscape.org/namespaces/inkscape"
   id="wave"
   style="transform:rotate(180deg); transition: 0.3s"
   viewBox="0 0 1440 270"
   version="1.1"
   sodipodi:docname="wave8-inset.svg"
   inkscape:version="0.92.5 (2060ec1f9f, 2020-04-08)">
  <metadata
     id="metadata14">
    <rdf:RDF>
      <cc:Work
         rdf:about="">
        <dc:format>image/svg+xml</dc:format>
        <dc:type
           rdf:resource="http://purl.org/dc/dcmitype/StillImage" />
      </cc:Work>
    </rdf:RDF>
  </metadata>
  <sodipodi:namedview
     pagecolor="#ffffff"
     bordercolor="#666666"
     borderopacity="1"
     objecttolerance="10"
     gridtolerance="10"
     guidetolerance="10"
     inkscape:pageopacity="0"
     inkscape:pageshadow="2"
     inkscape:window-width="1360"
     inkscape:window-height="704"
     id="namedview12"
     showgrid="false"
     inkscape:zoom="0.24097222"
     inkscape:cx="724.14986"
     inkscape:cy="135"
     inkscape:window-x="0"
     inkscape:window-y="128"
     inkscape:window-maximized="1"
     inkscape:current-layer="wave" />
  <defs
     id="defs7">
    <linearGradient
       id="sw-gradient-0"
       x1="0"
       x2="0"
       y1="1"
       y2="0">
      <stop
         stop-color="rgba(245, 243, 238, 1)"
         offset="0%"
         id="stop2" />
      <stop
         stop-color="rgba(245, 243, 238, 1)"
         offset="100%"
         id="stop4" />
    </linearGradient>
    <filter
       style="color-interpolation-filters:sRGB;"
       inkscape:label="Drop Shadow"
       id="filter951">
      <feFlood
         flood-opacity="0.121569"
         flood-color="rgb(0,0,0)"
         result="flood"
         id="feFlood941" />
      <feComposite
         in="flood"
         in2="SourceGraphic"
         operator="out"
         result="composite1"
         id="feComposite943" />
      <feGaussianBlur
         in="composite1"
         stdDeviation="4.8"
         result="blur"
         id="feGaussianBlur945" />
      <feOffset
         dx="0"
         dy="15"
         result="offset"
         id="feOffset947" />
      <feComposite
         in="offset"
         in2="SourceGraphic"
         operator="atop"
         result="composite2"
         id="feComposite949" />
    </filter>
  </defs>
  <path
     style="transform:translate(0, 0px);opacity:1;fill:#f5f3ee;fill-opacity:1;filter:url(#filter951)"
     fill="url(#sw-gradient-0)"
     d="M0,81L48,94.5C96,108,192,135,288,144C384,153,480,144,576,144C672,144,768,153,864,162C960,171,1056,180,1152,153C1248,126,1344,63,1440,31.5C1536,0,1632,0,1728,18C1824,36,1920,72,2016,99C2112,126,2208,144,2304,130.5C2400,117,2496,72,2592,72C2688,72,2784,117,2880,121.5C2976,126,3072,90,3168,103.5C3264,117,3360,180,3456,184.5C3552,189,3648,135,3744,94.5C3840,54,3936,27,4032,36C4128,45,4224,90,4320,130.5C4416,171,4512,207,4608,211.5C4704,216,4800,189,4896,153C4992,117,5088,72,5184,63C5280,54,5376,81,5472,76.5C5568,72,5664,36,5760,18C5856,0,5952,0,6048,13.5C6144,27,6240,54,6336,67.5C6432,81,6528,81,6624,94.5C6720,108,6816,135,6864,148.5L6912,162L6912,270L6864,270C6816,270,6720,270,6624,270C6528,270,6432,270,6336,270C6240,270,6144,270,6048,270C5952,270,5856,270,5760,270C5664,270,5568,270,5472,270C5376,270,5280,270,5184,270C5088,270,4992,270,4896,270C4800,270,4704,270,4608,270C4512,270,4416,270,4320,270C4224,270,4128,270,4032,270C3936,270,3840,270,3744,270C3648,270,3552,270,3456,270C3360,270,3264,270,3168,270C3072,270,2976,270,2880,270C2784,270,2688,270,2592,270C2496,270,2400,270,2304,270C2208,270,2112,270,2016,270C1920,270,1824,270,1728,270C1632,270,1536,270,1440,270C1344,270,1248,270,1152,270C1056,270,960,270,864,270C768,270,672,270,576,270C480,270,384,270,288,270C192,270,96,270,48,270L0,270Z"
     id="path9" />
</svg>
